<svg width="42" height="42" viewBox="0 0 42 42" fill="none" xmlns="http://www.w3.org/2000/svg">
<g clip-path="url(#clip0_1_69)">
<path d="M21 38.5C19.075 38.5 17.5 36.925 17.5 35H24.5C24.5 36.925 22.925 38.5 21 38.5ZM10.5 28V19.25C10.5 13.8775 13.3525 9.38 18.375 8.19V7C18.375 5.5475 19.5475 4.375 21 4.375C22.4525 4.375 23.625 5.5475 23.625 7V8.19C28.63 9.38 31.5 13.86 31.5 19.25V28L35 31.5V33.25H7V31.5L10.5 28ZM14 29.75H28V19.25C28 14.91 25.3575 11.375 21 11.375C16.6425 11.375 14 14.91 14 19.25V29.75Z" fill="#61656F"/>
</g>
<defs>
<clipPath id="clip0_1_69">
<rect width="42" height="42" fill="white" transform="matrix(-1 0 0 1 42 0)"/>
</clipPath>
</defs>
</svg>
