<svg width="32" height="30" viewBox="0 0 32 30" fill="none" xmlns="http://www.w3.org/2000/svg">
<path d="M30 25V26.6667C30 28.5 28.5 30 26.6667 30L3.33333 30C1.48333 30 0 28.5 0 26.6667L0 3.33333C0 1.5 1.48333 0 3.33333 0L26.6667 0C28.5 0 30 1.5 30 3.33333V5L15 5C13.15 5 11.6667 6.5 11.6667 8.33333L11.6667 21.6667C11.6667 23.5 13.15 25 15 25H30ZM15 21.6667H31.6667L31.6667 8.33333L15 8.33333L15 21.6667ZM21.6667 17.5C20.2833 17.5 19.1667 16.3833 19.1667 15C19.1667 13.6167 20.2833 12.5 21.6667 12.5C23.05 12.5 24.1667 13.6167 24.1667 15C24.1667 16.3833 23.05 17.5 21.6667 17.5Z" fill="#B4BCCF"/>
</svg>
